{"glyphs":{"0":{"ha":736,"x_min":35,"x_max":704,"o":"m 369 1024 q 500 983 439 1024 q 606 871 561 942 q 678 706 651 800 q 704 503 704 611 q 678 301 704 396 q 606 136 651 207 q 500 24 561 65 q 369 -17 439 -17 q 239 24 300 -17 q 133 136 178 65 q 61 301 88 207 q 35 503 35 396 q 61 706 35 611 q 133 871 88 800 q 239 983 178 942 q 369 1024 300 1024 m 369 54 q 453 90 414 54 q 522 186 493 125 q 568 328 551 247 q 585 503 585 410 q 568 678 585 596 q 522 821 551 760 q 453 917 493 882 q 369 953 414 953 q 285 917 325 953 q 217 821 246 882 q 171 678 188 760 q 154 503 154 596 q 171 328 154 410 q 217 186 188 247 q 285 90 246 125 q 369 54 325 54 z "},"1":{"ha":450,"x_min":53,"x_max":390,"o":"m 390 17 l 390 3 l 390 0 l 222 0 l 222 1 l 221 0 l 54 0 l 53 3 l 53 17 l 54 18 l 82 18 l 93 18 q 122 23 104 19 q 151 38 140 26 q 163 64 163 49 l 163 88 l 163 871 q 144 917 163 899 q 97 936 125 936 l 54 936 l 53 938 l 53 953 l 54 954 q 201 993 135 961 q 258 1026 233 1008 l 278 1026 l 279 1025 l 279 943 l 279 871 l 279 100 l 279 64 q 290 38 279 49 q 319 23 301 26 q 349 18 338 19 l 360 18 l 390 18 l 390 17 z "},"2":{"ha":651,"x_min":25,"x_max":628,"o":"m 628 3 l 626 0 l 25 0 l 25 57 q 194 318 125 211 q 310 496 264 425 q 381 608 356 567 q 420 670 407 649 q 437 699 433 692 q 443 713 440 707 q 458 799 458 751 q 447 869 458 835 q 408 928 436 903 q 321 956 376 956 q 250 939 278 956 q 207 906 222 922 q 181 863 190 885 q 172 829 172 842 q 175 807 172 815 q 181 792 178 799 q 185 778 183 785 q 188 760 188 771 q 186 745 188 757 q 174 718 185 733 q 110 688 151 688 q 64 706 82 688 q 45 736 50 718 q 40 775 40 754 q 50 840 40 807 q 74 897 60 874 q 151 976 100 944 q 241 1015 194 1004 q 322 1025 288 1025 q 373 1022 349 1025 q 419 1011 397 1018 q 539 927 494 988 q 583 785 583 867 q 567 685 583 731 q 522 596 551 640 q 451 504 492 551 q 359 400 410 457 q 250 274 308 343 q 128 115 192 204 l 568 115 q 590 125 578 115 q 607 160 604 139 q 610 192 610 182 l 611 193 l 626 193 l 628 192 l 628 3 z "},"3":{"ha":719,"x_min":31,"x_max":693,"o":"m 557 547 q 654 422 621 500 q 679 301 679 364 q 649 167 679 232 q 633 137 642 151 q 614 110 625 122 q 490 14 568 50 q 349 -17 425 -14 q 278 -11 313 -17 q 207 8 243 -6 q 174 24 192 14 q 128 52 153 35 q 82 92 104 69 q 45 141 60 115 q 31 194 31 167 q 52 253 31 229 q 106 278 74 278 q 159 253 138 278 q 181 194 181 229 q 178 171 181 185 q 176 161 176 165 q 175 153 175 157 q 192 111 175 129 q 233 81 208 93 q 284 61 257 68 q 333 54 311 54 l 342 54 q 418 74 382 54 q 486 128 454 93 q 538 214 519 165 q 557 315 557 263 q 531 429 557 376 q 447 515 500 488 q 363 535 413 535 q 244 522 319 535 l 243 524 l 522 892 l 144 892 q 119 882 129 892 q 103 847 106 868 q 100 818 100 825 l 100 815 l 99 813 l 83 813 l 82 815 l 82 1007 l 83 1008 l 692 1008 l 693 1007 l 378 604 q 457 594 407 604 q 557 547 507 585 z "},"4":{"ha":657,"x_min":19,"x_max":631,"o":"m 631 425 l 631 358 l 629 357 l 503 357 l 503 100 l 503 64 q 514 36 503 47 q 543 22 525 25 q 572 18 561 19 l 583 18 l 613 18 l 614 18 l 614 3 l 613 0 l 278 0 l 275 3 l 275 18 l 278 18 l 306 18 l 317 18 q 346 22 328 19 q 375 36 364 25 q 386 64 386 50 l 386 78 l 386 357 l 21 357 l 19 358 l 19 425 l 21 425 l 386 985 l 407 993 q 476 1026 442 1007 l 478 1026 l 501 1026 l 503 1025 l 503 869 l 503 426 l 629 426 l 631 425 m 386 426 l 386 872 l 86 426 l 386 426 z "},"5":{"ha":733,"x_min":36,"x_max":688,"o":"m 688 1007 l 688 815 l 685 813 l 671 813 l 669 815 l 669 818 q 666 847 669 825 q 649 882 663 868 q 625 892 640 892 l 260 892 l 178 557 q 220 574 199 567 q 263 588 242 582 q 378 604 317 604 q 474 591 426 604 q 563 547 521 578 q 658 424 626 500 q 683 301 683 365 q 653 169 683 231 q 618 113 642 140 q 540 40 582 67 q 458 1 497 14 q 388 -14 418 -11 q 346 -17 357 -17 q 272 -8 315 -17 q 179 26 228 0 q 133 55 158 38 q 87 94 108 72 q 51 142 65 117 q 36 196 36 168 q 58 255 36 231 q 111 279 79 279 q 165 255 143 279 q 186 196 186 231 q 185 184 186 189 q 183 174 185 179 q 181 156 181 163 q 208 103 181 122 q 263 72 231 88 q 335 57 296 57 l 346 57 q 490 131 428 61 q 540 210 521 165 q 563 303 558 254 l 563 318 q 538 424 563 371 q 451 517 508 486 q 406 533 432 528 q 351 539 379 539 q 335 539 343 539 q 318 538 326 539 q 267 528 289 535 q 233 515 244 521 q 213 506 224 511 q 186 492 201 501 q 148 469 171 483 q 92 433 125 456 l 90 435 l 226 1007 l 228 1008 l 685 1008 l 688 1007 z "},"6":{"ha":661,"x_min":32,"x_max":626,"o":"m 540 569 q 604 458 582 521 q 626 326 626 396 q 606 204 626 265 q 547 94 586 143 q 453 14 508 44 q 329 -17 399 -17 q 208 13 263 -17 q 115 90 154 42 q 53 200 75 139 q 32 326 32 261 q 52 576 32 450 q 131 822 72 701 q 176 899 150 863 q 235 962 203 935 q 303 1005 267 989 q 378 1021 339 1021 q 451 1006 414 1021 q 528 956 489 990 q 558 924 543 940 q 588 888 574 908 q 598 867 594 881 q 601 843 601 854 q 590 804 601 822 q 549 779 575 779 q 510 794 525 779 q 496 835 496 810 q 497 847 496 842 q 500 857 499 853 q 501 869 501 863 q 494 905 501 889 q 476 929 486 921 q 452 944 465 940 q 424 949 439 949 q 379 942 403 949 q 305 894 338 931 q 248 811 272 858 q 206 713 224 764 q 179 622 189 661 q 329 669 250 669 q 443 644 389 669 q 540 569 497 618 m 510 326 q 496 434 510 383 q 457 522 482 485 q 399 581 432 560 q 329 603 367 603 q 259 581 292 603 q 201 522 226 560 q 163 434 176 485 q 149 326 149 383 q 163 219 149 269 q 201 131 176 168 q 259 72 226 93 q 329 50 292 50 q 399 72 367 50 q 457 131 432 93 q 496 219 482 168 q 510 326 510 269 z "},"7":{"ha":688,"x_min":35,"x_max":647,"o":"m 647 1007 l 261 0 l 260 0 l 167 0 l 165 1 l 507 892 l 135 892 l 99 892 q 72 882 82 892 q 56 846 58 868 q 53 817 53 824 l 53 815 l 51 813 l 36 813 l 35 815 l 35 1007 l 36 1008 l 51 1008 l 606 1008 l 646 1008 l 647 1007 z "},"8":{"ha":682,"x_min":32,"x_max":650,"o":"m 331 542 q 278 491 308 521 q 220 424 247 461 q 174 340 193 386 q 156 242 156 294 q 178 153 156 189 q 234 95 201 117 q 301 64 267 74 q 356 54 335 54 q 419 60 379 54 q 497 87 458 67 q 564 144 536 107 q 592 242 592 181 q 572 315 592 283 q 519 374 551 347 q 449 422 488 400 q 376 468 411 444 l 351 485 q 334 496 343 490 q 317 507 325 501 q 234 563 276 533 q 158 626 192 592 q 102 703 124 661 q 81 794 81 744 q 103 883 81 842 q 162 955 126 924 q 241 1004 197 986 q 326 1022 285 1022 q 417 1011 369 1022 q 506 974 465 1000 q 573 903 546 947 q 600 794 600 860 q 570 690 600 739 q 504 606 540 642 q 410 526 463 563 l 360 556 q 446 631 408 592 q 505 707 478 664 q 532 794 532 750 q 516 870 532 839 q 475 922 500 901 q 420 951 450 942 q 363 961 390 961 q 304 949 335 961 q 247 916 274 938 q 204 863 221 894 q 188 794 188 832 q 207 736 188 765 q 258 680 226 707 q 327 628 289 653 q 401 581 365 603 q 467 542 438 560 q 514 511 497 524 q 567 467 542 490 q 610 413 592 444 q 640 340 629 382 q 650 242 650 299 q 628 134 650 182 q 566 53 606 86 q 473 1 526 19 q 356 -17 419 -17 q 234 0 293 -17 q 131 50 175 17 q 59 131 86 83 q 32 242 32 179 q 42 303 32 272 q 70 365 53 335 q 110 422 88 394 q 156 474 132 450 q 281 581 211 529 l 331 542 z "},"9":{"ha":675,"x_min":31,"x_max":625,"o":"m 625 696 q 606 440 625 569 q 529 188 586 311 q 424 38 482 90 q 286 -17 363 -17 q 206 -1 246 -17 q 131 49 165 15 q 106 72 119 58 q 82 100 93 85 q 63 132 71 115 q 56 165 56 149 q 67 206 56 188 q 108 232 82 232 q 146 216 132 232 q 160 174 160 200 q 157 151 160 157 q 156 144 157 147 q 156 138 156 140 q 163 101 156 118 q 181 75 171 85 q 201 63 188 68 q 233 57 214 57 q 254 58 243 57 q 279 64 265 60 q 302 72 288 65 q 337 99 317 79 q 381 154 357 118 q 432 251 406 190 q 460 330 447 289 q 483 414 472 371 q 328 367 410 367 q 214 392 268 367 q 118 463 160 417 q 53 569 75 510 q 31 696 31 629 q 53 822 31 763 q 118 928 75 881 q 214 999 160 975 q 328 1024 268 1024 q 442 999 388 1024 q 538 928 496 975 q 603 822 581 881 q 625 696 625 763 m 510 696 q 495 799 510 750 q 456 883 481 847 q 399 939 432 918 q 328 960 365 960 q 258 939 290 960 q 200 883 225 918 q 161 799 175 847 q 147 696 147 750 q 161 593 147 642 q 200 508 175 544 q 258 451 225 472 q 328 431 290 431 q 399 451 365 431 q 456 508 432 472 q 495 593 481 544 q 510 696 510 642 z "},"\u0000":{"ha":0,"x_min":0,"x_max":0,"o":""},"\r":{"ha":694,"x_min":0,"x_max":0,"o":""}," ":{"ha":350,"x_min":0,"x_max":0,"o":""},"A":{"ha":904,"x_min":13,"x_max":883,"o":"m 883 17 l 883 1 l 882 0 l 794 0 l 793 0 l 643 0 l 540 0 l 539 1 l 539 17 l 540 18 l 561 18 q 594 22 576 18 q 619 38 611 26 q 624 60 628 49 l 525 381 l 243 381 l 169 89 q 167 76 168 83 q 163 63 165 69 q 167 39 158 50 q 201 22 178 25 q 235 18 224 18 l 242 18 l 243 17 l 243 1 l 242 0 l 181 0 l 146 0 l 82 0 l 81 0 l 75 0 l 13 0 l 13 1 l 13 17 l 13 18 l 19 18 q 36 19 25 18 q 58 25 47 21 q 80 38 69 29 q 94 61 90 46 l 104 99 l 333 1006 l 335 1007 l 335 1010 l 485 1010 l 486 1008 l 763 107 q 767 93 764 100 q 771 80 769 86 q 775 67 772 74 l 776 63 q 798 36 781 51 q 861 18 815 21 l 882 18 l 883 17 m 375 872 l 371 886 l 258 440 l 508 440 l 375 872 z "},"B":{"ha":851,"x_min":25,"x_max":806,"o":"m 743 460 q 790 375 775 422 q 806 279 806 328 q 785 171 806 224 q 721 76 764 118 q 667 36 694 51 q 613 13 639 21 q 565 3 588 6 q 525 0 542 0 l 28 0 l 25 1 l 25 17 l 28 18 l 39 18 q 67 22 50 18 q 96 36 85 25 q 108 63 108 46 l 108 946 q 96 972 108 961 q 67 987 85 983 q 39 990 50 990 l 28 990 l 25 992 l 25 1008 l 28 1008 l 110 1008 l 490 1008 q 519 1006 499 1008 q 567 996 540 1004 q 633 963 603 983 q 688 914 664 943 q 728 840 715 881 q 742 754 742 799 q 724 656 742 704 q 667 572 706 608 q 629 543 647 556 q 743 460 697 518 m 561 618 q 604 682 589 646 q 619 758 619 718 q 606 831 619 796 q 561 896 592 867 q 425 950 504 950 l 253 950 l 253 567 l 463 567 q 561 618 518 576 m 253 65 l 450 65 q 603 128 538 65 q 651 199 635 158 q 668 283 668 239 q 652 366 668 325 q 603 439 636 407 q 450 501 538 501 l 253 501 l 253 65 z "},"C":{"ha":850,"x_min":36,"x_max":811,"o":"m 793 740 l 793 751 q 792 776 793 761 q 785 807 790 790 q 766 848 775 832 q 747 876 757 864 q 722 898 736 888 q 689 921 708 908 q 588 960 644 951 q 486 964 531 968 q 385 922 438 960 q 288 825 332 885 q 209 674 236 756 q 182 504 182 592 q 209 335 182 417 q 288 183 236 253 q 385 87 332 124 q 486 44 438 50 q 588 49 531 40 q 689 86 644 57 q 722 109 708 99 q 745 131 735 119 q 765 157 756 142 q 782 194 774 172 q 791 231 789 214 q 793 258 793 247 l 793 269 l 793 271 l 794 271 l 811 271 l 811 54 l 794 54 l 793 54 l 793 56 q 790 73 793 58 q 779 106 786 88 q 731 65 756 83 q 678 33 706 47 q 581 -4 632 8 q 478 -17 531 -17 q 386 -7 432 -17 q 297 24 340 3 q 161 136 221 64 q 67 308 99 213 q 36 504 36 403 q 67 699 36 604 q 161 872 99 793 q 297 983 222 946 q 476 1025 381 1025 q 579 1013 528 1025 q 678 975 631 1000 q 779 903 735 946 q 790 938 786 922 q 793 956 793 953 l 794 957 l 811 957 l 811 956 l 811 740 l 811 739 l 794 739 l 793 740 z "},"D":{"ha":917,"x_min":32,"x_max":881,"o":"m 758 861 q 849 697 817 789 q 881 504 881 606 q 849 311 881 403 q 758 147 817 219 q 697 85 731 113 q 626 39 663 58 q 467 0 553 0 l 258 0 l 228 0 l 201 0 l 117 0 l 33 0 l 32 1 l 32 17 l 33 18 l 44 18 q 74 22 57 18 q 103 36 92 25 q 114 63 114 46 l 114 99 l 115 99 l 115 922 l 115 946 q 103 972 115 961 q 74 987 92 983 q 46 990 57 990 l 33 990 l 32 992 l 32 1008 l 33 1008 l 117 1008 l 201 1008 l 228 1008 l 258 1008 l 465 1008 q 626 969 550 1008 q 758 861 701 931 m 467 58 q 581 95 528 60 q 675 191 635 131 q 738 332 715 251 q 761 504 761 413 q 738 677 761 596 q 675 819 715 758 q 581 915 635 879 q 465 950 526 950 l 260 950 l 260 58 l 467 58 z "},"E":{"ha":726,"x_min":35,"x_max":700,"o":"m 700 168 l 700 1 l 699 0 l 683 0 l 258 0 l 35 0 l 35 1 l 35 17 l 35 18 l 47 18 q 83 24 69 18 q 104 36 97 29 q 113 51 111 43 q 115 63 115 58 l 115 99 l 115 943 q 104 970 115 954 q 47 989 93 986 l 35 989 l 35 1006 l 35 1007 l 203 1007 l 683 1006 l 699 1006 l 700 1004 l 700 836 l 699 835 l 683 835 l 682 836 l 682 874 q 672 923 681 899 q 638 947 663 947 l 601 947 l 260 947 l 260 560 l 468 560 l 504 560 q 538 584 529 560 q 549 633 546 608 l 549 681 l 550 682 l 565 682 l 567 681 l 567 382 l 565 381 l 550 381 l 549 382 l 549 428 q 538 477 546 453 q 504 501 529 501 l 468 501 l 260 501 l 260 58 l 638 58 q 672 83 663 58 q 682 132 681 107 l 682 168 l 683 169 l 699 169 l 700 168 z "},"F":{"ha":746,"x_min":43,"x_max":711,"o":"m 711 1008 l 711 840 l 710 838 l 694 838 l 693 840 l 693 876 q 687 911 690 894 q 674 939 683 928 q 649 950 663 950 l 269 950 l 269 564 l 478 564 l 514 564 q 539 574 529 564 q 553 602 549 585 q 558 638 557 619 l 558 674 l 558 683 l 560 685 l 575 685 l 576 683 l 576 383 l 575 383 l 560 383 l 558 383 l 558 393 l 558 431 q 553 465 557 447 q 539 493 549 482 q 514 504 529 504 l 478 504 l 269 504 l 269 99 l 269 63 q 281 36 269 47 q 310 22 292 25 q 339 18 328 18 l 350 18 l 351 17 l 351 1 l 350 0 l 213 0 l 182 0 l 44 0 l 43 1 l 43 17 l 44 18 l 56 18 q 84 22 67 18 q 114 36 101 25 q 125 63 125 47 l 125 99 l 125 946 q 114 972 125 961 q 84 987 101 983 q 56 990 67 990 l 44 990 l 43 992 l 43 1008 l 44 1008 l 126 1008 l 213 1008 l 239 1008 l 268 1008 l 694 1008 l 710 1008 l 711 1008 z "},"G":{"ha":951,"x_min":29,"x_max":928,"o":"m 928 383 l 928 369 l 926 368 l 890 368 q 855 362 872 365 q 826 347 838 358 q 817 326 817 338 l 817 1 l 814 -1 l 697 -1 l 696 1 l 696 46 q 684 40 689 43 q 672 33 679 36 q 467 -17 578 -17 l 458 -17 q 292 24 372 -17 q 156 136 214 64 q 61 306 93 211 q 29 504 29 400 q 61 703 29 608 q 156 872 93 797 q 292 983 214 946 q 458 1025 371 1025 q 672 975 574 1028 q 772 903 728 944 q 783 938 779 922 q 786 956 786 953 l 788 956 l 789 957 l 804 957 l 806 956 l 806 740 l 804 739 l 789 739 l 788 740 l 788 751 q 785 776 786 761 q 778 807 783 790 q 760 848 768 832 q 740 876 751 864 q 715 898 729 888 q 682 921 701 908 q 634 945 660 936 q 581 959 608 954 q 528 965 554 964 q 479 964 501 965 q 378 922 431 960 q 281 825 325 885 q 202 674 229 756 q 175 504 175 592 q 202 335 175 417 q 281 183 229 253 q 378 87 325 124 q 479 44 431 50 q 528 43 501 42 q 581 49 554 44 q 634 62 608 53 q 682 86 660 71 q 689 92 685 89 q 696 97 693 94 l 696 324 q 685 347 696 336 q 656 362 674 358 q 622 368 639 365 l 585 368 l 583 369 l 583 383 l 585 386 l 926 386 l 928 383 z "},"H":{"ha":901,"x_min":35,"x_max":864,"o":"m 864 17 l 864 1 l 863 0 l 781 0 l 724 0 l 694 0 l 639 0 l 556 0 l 556 1 l 556 17 l 556 18 l 567 18 q 596 22 578 18 q 625 36 614 25 q 636 63 636 46 l 636 99 l 636 503 l 261 503 l 261 99 l 261 63 q 272 36 261 47 q 301 22 283 25 q 331 18 319 18 l 342 18 l 343 17 l 343 1 l 342 0 l 260 0 l 203 0 l 174 0 l 117 0 l 36 0 l 35 1 l 35 17 l 36 18 l 46 18 q 75 22 57 18 q 106 36 93 25 q 115 63 115 46 l 115 99 l 115 910 l 115 946 q 106 972 115 963 q 76 987 93 983 q 46 990 58 990 l 36 990 l 35 992 l 35 1008 l 36 1008 l 117 1008 l 174 1008 l 203 1008 l 260 1008 l 342 1008 l 343 1008 l 343 992 l 342 990 l 331 990 q 301 987 319 990 q 272 972 283 983 q 261 946 261 961 l 261 910 l 261 561 l 636 561 l 636 910 l 636 946 q 625 972 636 963 q 597 987 614 983 q 567 990 579 990 l 556 990 l 556 992 l 556 1008 l 639 1008 l 694 1008 l 724 1008 l 781 1008 l 863 1008 l 863 992 l 863 990 l 851 990 q 822 987 839 990 q 793 972 804 983 q 782 950 782 964 l 782 99 l 782 63 q 793 36 782 47 q 822 22 804 25 q 851 18 840 18 l 863 18 l 864 17 z "},"I":{"ha":371,"x_min":33,"x_max":343,"o":"m 343 17 l 343 1 l 342 0 l 260 0 l 203 0 l 174 0 l 118 0 l 36 0 l 33 1 l 33 17 l 36 18 l 47 18 q 76 22 58 18 q 104 36 93 25 q 117 63 117 46 l 117 99 l 117 946 q 104 972 117 961 q 76 987 93 983 q 47 990 58 990 l 36 990 l 33 992 l 33 1008 l 36 1008 l 118 1008 l 174 1008 l 203 1008 l 260 1008 l 342 1008 l 343 1008 l 343 992 l 342 990 l 331 990 q 301 987 319 990 q 272 972 283 983 q 261 950 261 964 l 261 99 l 261 63 q 272 36 261 46 q 301 22 283 25 q 331 18 319 18 l 342 18 l 343 17 z "},"J":{"ha":688,"x_min":33,"x_max":639,"o":"m 639 992 l 636 990 l 625 990 q 607 989 618 990 q 585 983 596 988 q 566 971 574 979 q 557 950 558 963 l 557 233 q 531 138 553 183 q 474 58 510 92 q 392 3 439 24 q 293 -17 346 -17 q 122 46 196 -17 q 60 124 86 78 q 33 222 33 169 q 55 281 33 257 q 108 306 76 306 q 162 281 140 306 q 183 222 183 257 q 182 210 183 214 q 181 189 181 203 q 189 136 181 161 q 203 103 194 119 q 224 73 211 86 q 253 51 236 60 q 292 42 269 42 q 392 97 360 42 q 408 146 404 121 q 413 183 411 171 l 413 921 l 413 946 q 405 969 413 960 q 386 983 397 978 q 363 989 375 988 q 343 990 351 990 l 332 990 l 329 992 l 329 1008 l 332 1008 l 413 1008 l 469 1008 l 499 1008 l 556 1008 l 636 1008 l 639 1008 l 639 992 z "},"K":{"ha":922,"x_min":40,"x_max":876,"o":"m 876 17 l 876 1 l 875 0 l 533 0 l 533 1 l 533 17 l 533 18 l 535 18 q 549 19 536 18 q 576 22 561 19 q 604 29 590 24 q 622 43 618 35 q 618 64 628 51 q 609 76 614 71 q 601 88 604 82 q 593 100 596 93 l 301 508 l 265 468 l 265 54 q 276 36 267 46 q 306 22 288 25 q 335 18 324 18 l 344 18 l 347 17 l 347 1 l 344 0 l 210 0 l 178 0 l 42 0 l 40 1 l 40 17 l 42 18 l 53 18 q 82 22 64 18 q 111 36 100 25 q 121 54 118 43 l 121 971 q 111 989 118 983 q 82 1003 100 1000 q 53 1008 64 1007 l 42 1008 l 40 1010 l 40 1025 l 42 1026 l 178 1026 l 210 1026 l 344 1026 l 347 1025 l 347 1010 l 344 1008 l 335 1008 q 306 1003 324 1007 q 276 989 288 1000 q 265 971 268 982 l 265 554 l 356 654 l 358 660 l 360 661 l 639 975 q 644 994 649 986 q 617 1007 640 1003 l 600 1007 l 594 1007 l 590 1007 l 589 1010 l 589 1025 l 590 1026 l 685 1026 l 757 1026 l 843 1026 l 844 1025 l 844 1010 l 843 1007 l 821 1007 q 785 1003 803 1007 q 704 963 732 994 q 699 957 701 960 q 694 951 697 954 l 393 613 l 724 115 q 735 97 724 114 q 757 68 747 81 q 790 40 771 50 q 828 26 810 31 q 859 19 846 21 q 875 18 872 18 l 876 17 z "},"L":{"ha":724,"x_min":32,"x_max":700,"o":"m 700 169 l 700 1 l 699 0 l 683 0 l 258 0 l 228 0 l 201 0 l 115 0 l 35 0 l 32 1 l 32 17 l 35 19 l 46 19 q 74 22 57 19 q 103 36 92 25 q 115 64 115 46 l 115 88 l 115 910 l 114 910 l 114 946 q 103 972 114 963 q 74 987 92 983 q 46 990 57 990 l 33 990 l 32 992 l 32 1007 l 33 1008 l 115 1008 l 172 1008 l 201 1008 l 258 1008 l 340 1008 l 342 1007 l 342 992 l 340 990 l 329 990 q 300 987 318 990 q 271 972 282 983 q 260 946 260 963 l 260 910 l 260 60 l 644 60 q 663 69 654 61 q 677 98 674 81 q 682 133 681 115 l 682 169 l 683 171 l 699 171 l 700 169 z "},"M":{"ha":1108,"x_min":38,"x_max":1061,"o":"m 1061 17 l 1061 1 l 1060 0 l 921 0 l 892 0 l 754 0 l 751 1 l 751 17 l 754 18 l 765 18 q 794 22 776 18 q 822 36 811 25 q 835 63 835 46 l 835 99 l 835 839 l 606 1 l 604 0 l 532 0 l 457 0 l 456 1 l 188 844 l 188 100 l 188 63 q 199 36 188 46 q 228 22 210 25 q 257 18 246 18 l 268 18 l 269 17 l 269 1 l 268 0 l 207 0 l 186 0 l 121 0 l 100 0 l 39 0 l 38 1 l 38 17 l 39 18 l 50 18 q 79 22 61 18 q 108 36 97 25 q 119 63 119 47 l 119 100 l 119 947 q 108 972 119 961 q 79 987 97 983 q 50 992 61 990 l 39 992 l 38 993 l 38 1007 l 39 1010 l 136 1010 l 283 1010 l 285 1008 l 565 128 l 806 1008 l 807 1008 l 835 1008 l 835 1010 l 892 1010 l 978 1010 l 1060 1010 l 1061 1007 l 1061 993 l 1060 992 l 1049 992 q 1019 987 1038 990 q 990 972 1001 983 q 979 951 979 964 l 979 99 l 979 63 q 990 36 979 46 q 1019 22 1001 25 q 1049 18 1038 18 l 1060 18 l 1061 17 z "},"N":{"ha":876,"x_min":43,"x_max":849,"o":"m 849 1007 l 849 993 l 847 990 l 836 990 q 807 987 825 990 q 778 972 789 983 q 767 946 767 961 l 767 910 l 767 1 l 765 0 l 700 0 l 611 0 l 193 896 l 193 100 l 193 63 q 204 36 193 47 q 233 22 215 25 q 263 18 251 18 l 274 18 l 275 17 l 275 1 l 274 0 l 213 0 l 192 0 l 126 0 l 106 0 l 46 0 l 43 1 l 43 17 l 46 18 l 57 18 q 85 22 68 18 q 114 36 103 25 q 126 63 126 46 l 126 100 l 126 947 q 114 972 126 961 q 85 987 103 983 q 57 992 68 990 l 46 992 l 43 993 l 43 1007 l 46 1010 l 143 1010 l 296 1010 l 297 1008 l 699 146 l 699 910 l 699 946 q 688 972 699 961 q 659 987 676 983 q 629 990 642 990 l 618 990 l 617 993 l 617 1007 l 618 1010 l 679 1010 l 700 1010 l 765 1010 l 786 1010 l 847 1010 l 849 1007 z "},"O":{"ha":886,"x_min":11,"x_max":867,"o":"m 439 1040 q 606 999 528 1040 q 742 888 683 958 q 833 722 800 817 q 867 519 867 628 q 833 318 867 413 q 742 153 800 224 q 606 41 683 82 q 439 0 528 0 q 272 41 350 0 q 136 153 194 82 q 44 318 78 224 q 11 519 11 413 q 44 722 11 628 q 136 888 78 817 q 272 999 194 958 q 439 1040 350 1040 m 439 58 q 549 94 497 58 q 640 193 601 131 q 701 340 679 256 q 724 519 724 424 q 701 699 724 615 q 640 846 679 783 q 549 944 601 908 q 439 981 497 981 q 328 944 381 981 q 238 846 276 908 q 178 699 200 783 q 156 519 156 615 q 178 340 156 424 q 238 193 200 256 q 328 94 276 131 q 439 58 381 58 z "},"P":{"ha":851,"x_min":36,"x_max":817,"o":"m 731 933 q 794 838 772 893 q 817 725 817 783 q 801 633 817 678 q 754 549 786 588 q 619 457 701 483 q 566 444 589 447 q 533 442 543 442 l 263 442 l 263 58 q 274 36 265 44 q 303 22 286 25 q 332 18 321 18 l 343 18 l 344 17 l 344 1 l 343 0 l 263 0 l 206 0 l 175 0 l 119 0 l 38 0 l 36 1 l 36 17 l 38 18 l 49 18 q 78 22 60 18 q 107 36 96 25 q 118 63 118 47 l 118 910 l 118 946 q 107 972 118 961 q 78 987 96 983 q 49 990 60 990 l 38 990 l 36 993 l 36 1007 l 38 1010 l 533 1010 q 573 1007 550 1010 q 622 997 596 1004 q 676 974 647 989 q 731 933 704 958 m 614 569 q 662 642 646 601 q 678 726 678 683 q 662 808 678 768 q 613 881 646 849 q 460 943 550 943 l 263 943 l 263 508 l 460 508 q 614 569 550 508 z "},"Q":{"ha":932,"x_min":35,"x_max":893,"o":"m 671 -106 q 799 -11 743 -82 l 801 -12 l 800 -82 l 800 -83 q 726 -157 768 -128 q 638 -199 685 -186 q 581 -206 606 -206 q 479 -175 522 -206 q 414 -74 433 -143 q 407 -40 408 -54 q 404 -14 406 -25 q 297 24 350 -4 q 161 135 219 64 q 67 304 99 210 q 35 503 35 399 q 67 703 35 608 q 161 872 99 797 q 297 983 219 943 q 464 1024 378 1024 q 631 983 550 1024 q 768 872 707 944 q 861 703 829 797 q 893 503 893 608 q 861 304 893 399 q 768 135 829 210 q 631 24 707 63 q 576 0 604 8 q 521 -14 549 -8 q 538 -72 525 -53 q 561 -97 551 -90 q 671 -106 603 -128 m 464 44 q 574 81 522 44 q 663 179 625 117 q 724 325 701 242 q 746 503 746 408 q 724 682 746 599 q 663 828 701 765 q 574 926 625 890 q 464 963 522 963 q 354 926 406 963 q 265 828 303 890 q 204 682 226 765 q 182 503 182 599 q 204 325 182 408 q 265 179 226 242 q 354 81 303 117 q 464 44 406 44 z "},"R":{"ha":910,"x_min":40,"x_max":871,"o":"m 871 17 l 871 1 l 869 0 l 528 0 l 526 1 l 526 17 l 528 18 l 533 18 q 553 19 542 18 q 578 22 565 19 q 601 30 590 25 q 617 43 613 35 q 617 61 621 50 l 360 504 l 267 504 l 267 63 q 278 36 267 47 q 307 22 289 25 q 336 18 325 18 l 347 18 l 349 17 l 349 1 l 347 0 l 208 0 l 179 0 l 42 0 l 40 1 l 40 17 l 42 18 l 53 18 q 81 22 64 18 q 111 36 99 25 q 122 63 122 47 l 122 928 l 122 946 q 111 972 122 961 q 81 987 99 983 q 53 992 64 990 l 42 992 l 40 993 l 40 1007 l 42 1010 l 504 1010 q 533 1006 513 1008 q 581 996 554 1004 q 653 957 621 982 q 709 899 686 932 q 744 827 732 865 q 757 749 757 789 q 739 656 757 701 q 681 572 721 611 q 594 519 639 532 q 518 504 550 507 l 740 89 q 746 77 743 82 q 751 67 749 72 q 818 22 769 35 q 858 18 840 18 l 869 18 l 871 17 m 439 564 q 517 581 481 564 q 578 624 553 597 q 619 688 604 651 q 633 761 633 724 q 619 831 633 797 q 575 896 606 865 q 439 950 518 950 l 267 950 l 267 564 l 439 564 z "},"T":{"ha":750,"x_min":24,"x_max":718,"o":"m 718 1008 l 718 840 l 718 839 l 701 839 l 700 840 l 700 876 q 695 911 699 894 q 681 939 692 928 q 656 950 669 950 l 443 950 l 443 100 l 443 63 q 454 36 443 47 q 484 22 467 25 q 513 18 501 19 l 524 18 l 525 17 l 525 1 l 524 0 l 442 0 l 386 0 l 357 0 l 300 0 l 218 0 l 217 1 l 217 17 l 218 18 l 229 18 q 258 22 240 19 q 288 36 276 25 q 299 63 299 47 l 299 100 l 299 950 l 86 950 q 61 939 72 950 q 47 911 50 928 q 42 876 43 894 l 42 840 l 40 839 l 25 839 l 24 840 l 24 1008 l 25 1010 l 40 1010 l 701 1010 l 718 1010 l 718 1008 z "},"U":{"ha":885,"x_min":32,"x_max":849,"o":"m 849 1008 l 849 993 l 847 992 l 836 992 q 807 988 825 990 q 778 974 789 985 q 767 946 767 963 l 767 910 l 767 226 q 701 81 767 146 q 589 10 656 35 q 516 -10 553 -3 q 440 -17 479 -17 q 257 26 340 -17 q 151 113 189 60 q 114 226 114 165 l 114 910 l 114 946 q 103 972 114 961 q 74 987 92 983 q 44 990 56 990 l 33 990 l 32 992 l 32 1007 l 33 1008 l 115 1008 l 171 1008 l 201 1008 l 257 1008 l 339 1008 l 340 1007 l 340 992 l 339 990 l 328 990 q 299 987 317 990 q 269 972 281 983 q 258 946 258 961 l 258 910 l 258 256 l 258 246 l 258 238 q 276 167 258 200 q 324 110 293 135 q 394 72 354 86 q 479 58 433 58 q 565 72 525 58 q 634 110 604 86 q 681 167 664 135 q 699 238 699 200 l 699 244 q 699 250 699 247 q 700 256 700 253 l 700 910 l 700 946 q 688 974 700 963 q 659 988 676 985 q 631 992 642 990 l 619 992 l 618 993 l 618 1008 l 619 1010 l 679 1010 l 700 1010 l 765 1010 l 786 1010 l 847 1010 l 849 1008 z "},"V":{"ha":993,"x_min":29,"x_max":968,"o":"m 968 1008 l 968 993 l 967 990 l 896 990 q 832 972 849 988 q 813 944 815 957 l 579 1 l 578 0 l 428 0 l 426 1 l 150 901 q 146 915 150 903 q 138 942 142 928 l 136 947 q 115 973 132 958 q 51 990 97 988 l 31 990 l 29 993 l 29 1008 l 31 1010 l 119 1010 l 268 1010 l 269 1010 l 372 1010 l 374 1008 l 374 993 l 372 990 l 350 990 q 318 987 335 990 q 293 972 301 983 q 289 949 286 960 l 538 136 l 738 947 q 733 974 742 965 q 714 987 726 983 q 690 990 701 990 l 625 990 l 624 993 l 624 1008 l 625 1010 l 754 1010 l 756 1010 l 826 1010 l 967 1010 l 968 1008 z "},"W":{"ha":1286,"x_min":29,"x_max":1258,"o":"m 1258 1008 l 1258 993 l 1257 992 l 1229 992 q 1203 988 1217 990 q 1176 981 1189 986 q 1154 967 1164 975 q 1142 946 1144 958 l 965 0 l 964 -1 l 908 0 l 815 0 l 814 1 l 632 825 l 510 1 l 510 0 l 497 0 l 361 0 l 361 1 l 128 943 q 79 988 119 976 q 51 992 67 990 l 32 992 l 29 992 l 29 1008 l 32 1010 l 114 1010 l 115 1010 l 338 1010 l 339 1008 l 339 992 l 338 992 l 317 992 q 269 974 283 989 q 264 951 261 965 l 464 142 l 592 1008 l 593 1010 l 597 1010 l 729 1006 l 729 1004 l 729 1006 l 922 133 l 1067 908 l 1074 944 q 1067 976 1078 965 q 1029 992 1056 990 l 1008 992 l 963 992 l 961 993 l 961 1008 l 963 1010 l 1257 1010 l 1258 1008 z "},"X":{"ha":940,"x_min":39,"x_max":908,"o":"m 908 17 l 908 1 l 907 0 l 557 0 l 556 1 l 556 17 l 557 18 l 563 18 q 578 19 568 18 q 599 22 589 19 q 619 28 610 24 q 632 39 628 32 q 631 64 639 50 q 622 79 626 72 q 615 92 618 86 l 444 415 l 243 64 q 240 36 232 46 q 252 26 243 29 q 269 21 261 22 q 282 19 276 19 q 290 18 288 18 l 294 18 l 319 18 l 321 17 l 321 1 l 319 0 l 46 0 l 46 1 l 46 17 l 46 18 l 57 18 q 75 20 64 19 q 99 24 86 21 q 169 67 150 33 l 192 107 l 407 483 l 186 901 l 179 915 q 172 929 176 922 q 164 943 167 936 q 139 969 156 960 q 105 983 122 978 q 71 990 88 988 q 46 992 54 992 l 39 992 l 39 1008 l 39 1010 l 131 1010 l 281 1010 l 389 1010 l 390 1008 l 390 992 l 389 992 l 383 992 q 368 991 378 992 q 348 988 358 990 q 328 981 338 986 q 314 969 318 976 q 317 944 308 960 q 331 919 324 929 q 336 910 335 914 l 488 622 l 651 910 l 672 944 q 675 972 681 963 q 647 988 668 985 q 618 992 626 992 l 615 992 l 592 992 l 590 992 l 590 1008 l 592 1010 l 710 1010 l 782 1010 l 864 1010 l 865 1008 l 865 992 l 864 992 l 857 992 q 839 990 850 992 q 814 985 828 989 q 746 942 765 975 q 738 928 742 935 q 731 915 733 922 q 722 901 726 908 l 524 554 l 761 107 l 768 93 q 775 79 771 86 q 783 65 779 72 q 808 41 792 50 q 842 27 824 32 q 876 20 860 22 q 901 18 893 18 l 907 18 l 908 17 z "},"Y":{"ha":910,"x_min":39,"x_max":876,"o":"m 876 1008 l 876 992 l 875 992 l 858 992 q 832 989 847 992 q 801 981 817 986 q 773 967 786 976 q 753 943 760 957 l 543 504 l 543 100 l 543 63 q 553 36 543 46 q 583 22 565 25 q 613 18 600 19 l 624 18 l 624 17 l 624 1 l 624 0 l 542 0 l 485 0 l 456 0 l 399 0 l 317 0 l 315 1 l 315 17 l 317 18 l 328 18 q 357 22 339 19 q 386 36 375 25 q 397 63 397 46 l 397 100 l 397 504 l 186 903 q 177 919 183 907 q 164 943 171 932 q 140 969 156 960 q 106 983 124 978 q 72 990 88 988 q 47 992 56 992 l 40 992 l 39 992 l 39 1008 l 40 1010 l 132 1010 l 274 1010 l 382 1010 l 383 1008 l 383 992 l 382 992 l 376 992 q 360 991 371 992 q 340 988 350 990 q 320 981 329 986 q 307 969 311 976 q 308 944 300 961 q 316 931 313 938 q 322 919 319 924 q 328 910 325 914 l 503 579 l 679 946 q 681 975 686 963 q 659 988 674 985 q 635 992 644 990 l 626 992 l 603 992 l 600 992 l 600 1008 l 603 1010 l 710 1010 l 711 1010 l 783 1010 l 875 1010 l 876 1008 z "},"Z":{"ha":714,"x_min":36,"x_max":686,"o":"m 686 169 l 686 1 l 685 0 l 669 0 l 157 0 l 38 0 l 38 1 l 38 3 l 38 51 l 38 54 l 38 57 l 468 949 l 92 949 q 74 939 83 949 q 60 910 64 928 q 54 876 56 893 l 54 839 l 53 838 l 38 838 l 36 839 l 36 1007 l 38 1008 l 53 1008 l 497 1008 l 508 1008 l 642 1008 l 643 1006 l 186 58 l 586 58 l 622 58 q 649 69 638 58 q 663 98 658 81 q 668 133 667 115 l 668 169 l 669 171 l 685 171 l 686 169 z "},":":{"ha":149,"x_min":18,"x_max":131,"o":"m 74 104 q 114 88 97 104 q 131 49 131 72 q 114 8 131 25 q 74 -8 97 -8 q 34 8 50 -8 q 18 49 18 25 q 34 88 18 72 q 74 104 50 104 m 74 492 q 34 508 50 492 q 18 547 18 524 q 34 588 18 571 q 74 604 50 604 q 114 588 97 604 q 131 547 131 571 q 114 508 131 524 q 74 492 97 492 z "},";":{"ha":140,"x_min":15,"x_max":147,"o":"m 71 492 q 31 508 47 492 q 15 547 15 524 q 31 588 15 571 q 71 604 47 604 q 110 588 94 604 q 126 547 126 571 q 110 508 126 524 q 71 492 94 492 m 126 71 q 144 26 140 51 q 140 -26 147 1 q 116 -80 133 -53 q 69 -128 99 -107 l 68 -128 l 25 -129 l 25 -125 q 68 -78 51 -104 q 88 -25 85 -53 q 83 -14 88 -18 q 71 -8 79 -8 q 31 8 47 -8 q 15 49 15 25 q 15 55 15 51 q 17 61 15 58 q 36 92 21 81 q 71 104 51 104 q 101 94 90 104 l 103 94 q 126 71 119 82 z "},",":{"ha":151,"x_min":13,"x_max":144,"o":"m 124 71 q 140 26 136 51 q 138 -26 144 1 q 113 -80 131 -53 q 67 -128 96 -107 l 65 -128 l 22 -129 l 21 -125 q 65 -78 49 -104 q 83 -25 81 -53 q 81 -14 85 -19 q 68 -8 75 -8 q 28 8 44 -8 q 13 49 13 25 q 13 55 13 51 q 14 61 13 58 q 33 92 18 81 q 68 104 49 104 q 99 94 88 104 l 100 94 q 113 83 107 89 q 124 71 118 78 z "},".":{"ha":133,"x_min":8,"x_max":121,"o":"m 64 104 q 104 88 88 104 q 121 49 121 72 q 104 8 121 25 q 64 -8 88 -8 q 24 8 40 -8 q 8 49 8 25 q 24 88 8 72 q 64 104 40 104 z "},"`":{"ha":1157,"x_min":203,"x_max":433,"o":"m 299 938 l 433 814 l 433 811 l 367 790 l 365 792 l 203 907 l 203 910 l 297 938 l 299 938 l 299 938 z "},"À":{"ha":944,"x_min":13,"x_max":883,"o":"m 883 17 l 883 1 l 882 0 l 794 0 l 793 0 l 643 0 l 540 0 l 539 1 l 539 17 l 540 18 l 561 18 q 594 22 576 18 q 619 38 611 26 q 624 60 628 49 l 525 381 l 243 381 l 169 89 q 167 76 168 83 q 163 63 165 69 q 167 39 158 50 q 201 22 178 25 q 235 18 224 18 l 242 18 l 243 17 l 243 1 l 242 0 l 181 0 l 146 0 l 82 0 l 81 0 l 75 0 l 13 0 l 13 1 l 13 17 l 13 18 l 19 18 q 36 19 25 18 q 58 25 47 21 q 80 38 69 29 q 94 61 90 46 l 104 99 l 333 1006 l 335 1007 l 335 1010 l 485 1010 l 486 1008 l 763 107 q 767 93 764 100 q 771 80 769 86 q 775 67 772 74 l 776 63 q 798 36 781 51 q 861 18 815 21 l 882 18 l 883 17 m 375 872 l 371 886 l 258 440 l 508 440 l 375 872 m 386 1215 l 521 1092 l 521 1089 l 454 1068 l 453 1069 l 290 1185 l 290 1188 l 385 1215 l 386 1215 l 386 1215 z "},"È":{"ha":726,"x_min":35,"x_max":700,"o":"m 700 168 l 700 1 l 699 0 l 683 0 l 258 0 l 35 0 l 35 1 l 35 17 l 35 18 l 47 18 q 83 24 69 18 q 104 36 97 29 q 113 51 111 43 q 115 63 115 58 l 115 99 l 115 943 q 104 970 115 954 q 47 989 93 986 l 35 989 l 35 1006 l 35 1007 l 203 1007 l 683 1006 l 699 1006 l 700 1004 l 700 836 l 699 835 l 683 835 l 682 836 l 682 874 q 672 923 681 899 q 638 947 663 947 l 601 947 l 260 947 l 260 560 l 468 560 l 504 560 q 538 584 529 560 q 549 633 546 608 l 549 681 l 550 682 l 565 682 l 567 681 l 567 382 l 565 381 l 550 381 l 549 382 l 549 428 q 538 477 546 453 q 504 501 529 501 l 468 501 l 260 501 l 260 58 l 638 58 q 672 83 663 58 q 682 132 681 107 l 682 168 l 683 169 l 699 169 l 700 168 m 343 1215 l 478 1092 l 478 1089 l 411 1068 l 410 1069 l 247 1185 l 247 1188 l 342 1215 l 343 1215 l 343 1215 z "},"Ì":{"ha":371,"x_min":33,"x_max":343,"o":"m 343 17 l 343 1 l 342 0 l 260 0 l 203 0 l 174 0 l 118 0 l 36 0 l 33 1 l 33 17 l 36 18 l 47 18 q 76 22 58 18 q 104 36 93 25 q 117 63 117 46 l 117 99 l 117 946 q 104 972 117 961 q 76 987 93 983 q 47 990 58 990 l 36 990 l 33 992 l 33 1008 l 36 1008 l 118 1008 l 174 1008 l 203 1008 l 260 1008 l 342 1008 l 343 1008 l 343 992 l 342 990 l 331 990 q 301 987 319 990 q 272 972 283 983 q 261 950 261 964 l 261 99 l 261 63 q 272 36 261 46 q 301 22 283 25 q 331 18 319 18 l 342 18 l 343 17 m 139 1215 l 274 1092 l 274 1089 l 207 1068 l 206 1069 l 43 1185 l 43 1188 l 138 1215 l 139 1215 l 139 1215 z "},"Ò":{"ha":919,"x_min":11,"x_max":867,"o":"m 439 1040 q 606 999 528 1040 q 742 888 683 958 q 833 722 800 817 q 867 519 867 628 q 833 318 867 413 q 742 153 800 224 q 606 41 683 82 q 439 0 528 0 q 272 41 350 0 q 136 153 194 82 q 44 318 78 224 q 11 519 11 413 q 44 722 11 628 q 136 888 78 817 q 272 999 194 958 q 439 1040 350 1040 m 439 58 q 549 94 497 58 q 640 193 601 131 q 701 340 679 256 q 724 519 724 424 q 701 699 724 615 q 640 846 679 783 q 549 944 601 908 q 439 981 497 981 q 328 944 381 981 q 238 846 276 908 q 178 699 200 783 q 156 519 156 615 q 178 340 156 424 q 238 193 200 256 q 328 94 276 131 q 439 58 381 58 m 440 1215 l 575 1092 l 575 1089 l 508 1068 l 507 1069 l 344 1185 l 344 1188 l 439 1215 l 440 1215 l 440 1215 z "},"Ù":{"ha":885,"x_min":32,"x_max":849,"o":"m 849 1008 l 849 993 l 847 992 l 836 992 q 807 988 825 990 q 778 974 789 985 q 767 946 767 963 l 767 910 l 767 226 q 701 81 767 146 q 589 10 656 35 q 516 -10 553 -3 q 440 -17 479 -17 q 257 26 340 -17 q 151 113 189 60 q 114 226 114 165 l 114 910 l 114 946 q 103 972 114 961 q 74 987 92 983 q 44 990 56 990 l 33 990 l 32 992 l 32 1007 l 33 1008 l 115 1008 l 171 1008 l 201 1008 l 257 1008 l 339 1008 l 340 1007 l 340 992 l 339 990 l 328 990 q 299 987 317 990 q 269 972 281 983 q 258 946 258 961 l 258 910 l 258 256 l 258 246 l 258 238 q 276 167 258 200 q 324 110 293 135 q 394 72 354 86 q 479 58 433 58 q 565 72 525 58 q 634 110 604 86 q 681 167 664 135 q 699 238 699 200 l 699 244 q 699 250 699 247 q 700 256 700 253 l 700 910 l 700 946 q 688 974 700 963 q 659 988 676 985 q 631 992 642 990 l 619 992 l 618 993 l 618 1008 l 619 1010 l 679 1010 l 700 1010 l 765 1010 l 786 1010 l 847 1010 l 849 1008 m 422 1215 l 557 1092 l 557 1089 l 490 1068 l 489 1069 l 326 1185 l 326 1188 l 421 1215 l 422 1215 l 422 1215 z "},"´":{"ha":1157,"x_min":201,"x_max":433,"o":"m 432 910 l 433 907 l 271 792 l 269 790 l 203 811 l 201 814 l 338 938 l 339 938 l 432 910 l 432 910 z "},"Á":{"ha":944,"x_min":13,"x_max":883,"o":"m 883 17 l 883 1 l 882 0 l 794 0 l 793 0 l 643 0 l 540 0 l 539 1 l 539 17 l 540 18 l 561 18 q 594 22 576 18 q 619 38 611 26 q 624 60 628 49 l 525 381 l 243 381 l 169 89 q 167 76 168 83 q 163 63 165 69 q 167 39 158 50 q 201 22 178 25 q 235 18 224 18 l 242 18 l 243 17 l 243 1 l 242 0 l 181 0 l 146 0 l 82 0 l 81 0 l 75 0 l 13 0 l 13 1 l 13 17 l 13 18 l 19 18 q 36 19 25 18 q 58 25 47 21 q 80 38 69 29 q 94 61 90 46 l 104 99 l 333 1006 l 335 1007 l 335 1010 l 485 1010 l 486 1008 l 763 107 q 767 93 764 100 q 771 80 769 86 q 775 67 772 74 l 776 63 q 798 36 781 51 q 861 18 815 21 l 882 18 l 883 17 m 375 872 l 371 886 l 258 440 l 508 440 l 375 872 m 586 1188 l 588 1185 l 425 1069 l 424 1068 l 357 1089 l 356 1092 l 492 1215 l 493 1215 l 586 1188 l 586 1188 z "},"É":{"ha":726,"x_min":35,"x_max":700,"o":"m 700 168 l 700 1 l 699 0 l 683 0 l 258 0 l 35 0 l 35 1 l 35 17 l 35 18 l 47 18 q 83 24 69 18 q 104 36 97 29 q 113 51 111 43 q 115 63 115 58 l 115 99 l 115 943 q 104 970 115 954 q 47 989 93 986 l 35 989 l 35 1006 l 35 1007 l 203 1007 l 683 1006 l 699 1006 l 700 1004 l 700 836 l 699 835 l 683 835 l 682 836 l 682 874 q 672 923 681 899 q 638 947 663 947 l 601 947 l 260 947 l 260 560 l 468 560 l 504 560 q 538 584 529 560 q 549 633 546 608 l 549 681 l 550 682 l 565 682 l 567 681 l 567 382 l 565 381 l 550 381 l 549 382 l 549 428 q 538 477 546 453 q 504 501 529 501 l 468 501 l 260 501 l 260 58 l 638 58 q 672 83 663 58 q 682 132 681 107 l 682 168 l 683 169 l 699 169 l 700 168 m 478 1188 l 479 1185 l 317 1069 l 315 1068 l 249 1089 l 247 1092 l 383 1215 l 385 1215 l 478 1188 l 478 1188 z "},"Í":{"ha":371,"x_min":33,"x_max":343,"o":"m 343 17 l 343 1 l 342 0 l 260 0 l 203 0 l 174 0 l 118 0 l 36 0 l 33 1 l 33 17 l 36 18 l 47 18 q 76 22 58 18 q 104 36 93 25 q 117 63 117 46 l 117 99 l 117 946 q 104 972 117 961 q 76 987 93 983 q 47 990 58 990 l 36 990 l 33 992 l 33 1008 l 36 1008 l 118 1008 l 174 1008 l 203 1008 l 260 1008 l 342 1008 l 343 1008 l 343 992 l 342 990 l 331 990 q 301 987 319 990 q 272 972 283 983 q 261 950 261 964 l 261 99 l 261 63 q 272 36 261 46 q 301 22 283 25 q 331 18 319 18 l 342 18 l 343 17 m 331 1188 l 332 1185 l 169 1069 l 168 1068 l 101 1089 l 100 1092 l 236 1215 l 238 1215 l 331 1188 l 331 1188 z "},"Ó":{"ha":919,"x_min":11,"x_max":867,"o":"m 439 1040 q 606 999 528 1040 q 742 888 683 958 q 833 722 800 817 q 867 519 867 628 q 833 318 867 413 q 742 153 800 224 q 606 41 683 82 q 439 0 528 0 q 272 41 350 0 q 136 153 194 82 q 44 318 78 224 q 11 519 11 413 q 44 722 11 628 q 136 888 78 817 q 272 999 194 958 q 439 1040 350 1040 m 439 58 q 549 94 497 58 q 640 193 601 131 q 701 340 679 256 q 724 519 724 424 q 701 699 724 615 q 640 846 679 783 q 549 944 601 908 q 439 981 497 981 q 328 944 381 981 q 238 846 276 908 q 178 699 200 783 q 156 519 156 615 q 178 340 156 424 q 238 193 200 256 q 328 94 276 131 q 439 58 381 58 m 574 1188 l 575 1185 l 413 1069 l 411 1068 l 344 1089 l 343 1092 l 479 1215 l 481 1215 l 574 1188 l 574 1188 z "},"Ú":{"ha":885,"x_min":32,"x_max":849,"o":"m 849 1008 l 849 993 l 847 992 l 836 992 q 807 988 825 990 q 778 974 789 985 q 767 946 767 963 l 767 910 l 767 226 q 701 81 767 146 q 589 10 656 35 q 516 -10 553 -3 q 440 -17 479 -17 q 257 26 340 -17 q 151 113 189 60 q 114 226 114 165 l 114 910 l 114 946 q 103 972 114 961 q 74 987 92 983 q 44 990 56 990 l 33 990 l 32 992 l 32 1007 l 33 1008 l 115 1008 l 171 1008 l 201 1008 l 257 1008 l 339 1008 l 340 1007 l 340 992 l 339 990 l 328 990 q 299 987 317 990 q 269 972 281 983 q 258 946 258 961 l 258 910 l 258 256 l 258 246 l 258 238 q 276 167 258 200 q 324 110 293 135 q 394 72 354 86 q 479 58 433 58 q 565 72 525 58 q 634 110 604 86 q 681 167 664 135 q 699 238 699 200 l 699 244 q 699 250 699 247 q 700 256 700 253 l 700 910 l 700 946 q 688 974 700 963 q 659 988 676 985 q 631 992 642 990 l 619 992 l 618 993 l 618 1008 l 619 1010 l 679 1010 l 700 1010 l 765 1010 l 786 1010 l 847 1010 l 849 1008 m 557 1188 l 558 1185 l 396 1069 l 394 1068 l 328 1089 l 326 1092 l 463 1215 l 464 1215 l 557 1188 l 557 1188 z "},"a":{"ha":646,"x_min":25,"x_max":617,"o":"m 617 17 l 617 0 l 615 0 l 392 0 l 390 0 l 390 72 q 322 0 374 24 q 239 -17 285 -17 q 222 -16 231 -17 q 206 -14 214 -15 q 138 5 169 -8 q 82 40 106 18 q 25 164 25 90 q 85 317 25 261 q 222 375 135 363 q 292 398 258 381 q 353 443 326 415 q 381 488 371 461 q 390 544 390 515 q 378 603 390 575 q 342 647 367 631 q 278 667 315 667 q 213 654 247 667 q 175 622 185 644 q 159 575 165 599 q 143 533 153 551 q 107 515 133 515 q 71 533 86 515 q 56 578 56 551 q 77 630 56 604 q 128 676 99 656 q 192 713 158 697 q 251 733 226 728 q 281 738 267 736 q 311 740 296 740 q 422 710 374 740 q 468 664 451 690 q 493 612 485 638 q 503 565 501 586 q 504 536 504 544 l 504 63 q 528 28 504 38 q 578 18 553 19 l 615 18 l 617 17 m 390 399 q 384 388 388 393 q 376 379 381 383 q 351 360 368 371 q 334 349 342 353 q 322 343 326 344 q 300 331 310 336 q 279 321 290 325 q 246 305 264 313 q 208 286 228 297 q 168 249 182 267 q 147 219 154 231 q 140 203 144 214 q 133 179 136 193 q 131 167 132 172 q 131 154 131 161 q 154 89 131 117 q 198 60 171 69 q 254 50 225 50 q 309 58 282 50 q 356 83 336 67 q 380 113 372 99 q 390 139 388 128 l 390 399 z "},"b":{"ha":767,"x_min":28,"x_max":733,"o":"m 642 631 q 710 508 686 578 q 733 363 733 439 q 710 217 733 286 q 642 94 686 149 q 540 13 597 42 q 421 -17 483 -17 q 258 40 332 -17 l 258 1 l 257 0 l 29 0 l 28 1 l 28 17 l 29 18 l 67 18 q 101 24 83 19 q 131 39 119 28 q 142 64 142 50 l 142 999 q 129 1028 142 1015 q 107 1041 121 1036 q 80 1048 93 1046 q 56 1050 67 1050 q 42 1050 46 1050 l 40 1051 l 40 1067 l 42 1068 l 267 1078 l 269 1076 l 269 1061 l 268 1060 l 258 1051 l 258 686 q 421 742 333 742 q 540 713 483 742 q 642 631 597 685 m 585 208 q 604 283 597 244 q 611 363 611 322 q 604 443 611 404 q 585 518 597 482 q 517 628 560 588 q 468 659 493 650 q 415 668 443 668 q 334 649 375 668 q 258 603 293 631 l 258 124 q 328 76 288 96 q 413 57 369 57 q 467 67 440 57 q 517 99 493 76 q 585 208 560 139 z "},"c":{"ha":644,"x_min":26,"x_max":617,"o":"m 611 192 l 611 190 q 499 42 572 97 q 333 -17 421 -17 q 215 13 271 -17 q 114 96 158 42 q 49 219 71 147 q 26 371 26 292 q 44 507 26 440 q 101 626 63 574 q 197 710 139 678 q 333 742 254 742 q 499 685 422 742 q 535 651 515 672 q 574 606 556 631 q 604 556 592 582 q 617 507 617 531 q 601 464 617 482 q 564 446 586 446 q 528 464 543 446 q 513 507 513 482 l 513 514 l 513 525 q 495 591 513 561 q 446 639 478 621 q 395 660 422 653 q 340 668 368 668 q 287 659 313 668 q 238 628 261 650 q 169 518 194 588 q 142 365 142 446 q 169 208 142 285 q 239 99 194 139 q 288 67 263 76 q 339 57 313 57 q 399 68 369 57 q 458 98 429 79 q 510 141 486 117 q 551 192 533 165 l 611 192 z "},"d":{"ha":757,"x_min":29,"x_max":735,"o":"m 735 17 l 735 1 l 732 0 l 506 0 l 504 1 l 504 40 q 340 -17 428 -17 q 222 13 278 -17 q 121 94 165 42 q 53 217 76 149 q 29 363 29 286 q 52 508 29 439 q 119 631 75 578 q 221 713 164 685 q 340 742 278 742 q 504 686 428 742 l 504 1000 q 492 1029 504 1017 q 469 1042 483 1038 q 442 1048 456 1046 q 419 1051 429 1050 q 404 1051 408 1051 l 403 1053 l 403 1068 l 404 1069 l 631 1079 l 632 1078 l 632 1063 l 631 1061 l 621 1053 l 621 64 q 632 39 621 49 q 660 24 643 28 q 696 18 678 19 l 732 18 l 735 17 m 504 603 q 432 649 472 631 q 349 668 392 668 q 294 658 321 668 q 244 628 268 649 q 176 518 201 588 q 157 443 164 482 q 150 363 150 404 q 157 283 150 322 q 176 208 164 244 q 244 99 201 139 q 294 68 268 78 q 347 58 319 58 q 428 76 388 58 q 504 124 468 94 l 504 603 z "},"e":{"ha":654,"x_min":18,"x_max":615,"o":"m 142 382 l 142 363 q 167 208 142 279 q 236 99 192 139 q 285 67 260 76 q 336 57 310 57 q 397 68 367 57 q 455 98 426 79 q 507 141 483 117 q 549 192 531 165 l 550 192 l 608 192 l 610 190 q 496 42 569 96 q 331 -17 421 -17 q 211 13 268 -17 q 110 96 154 42 q 42 218 65 149 q 18 363 18 288 q 42 508 18 439 q 110 631 65 578 q 213 715 158 689 q 322 742 267 742 q 431 715 379 742 q 524 642 483 689 q 590 530 565 596 q 615 385 614 464 l 614 382 l 142 382 m 331 668 q 270 652 299 668 q 217 608 242 636 q 176 541 193 581 q 150 456 158 501 l 497 456 q 479 526 490 493 q 451 588 468 560 q 331 668 403 668 z "},"f":{"ha":615,"x_min":24,"x_max":576,"o":"m 551 1026 q 576 974 576 1010 q 561 929 576 947 q 525 911 546 911 q 488 929 503 911 q 472 974 472 947 q 454 1007 472 996 q 394 1022 431 1022 q 278 943 313 1022 q 264 906 269 925 q 256 872 258 888 q 253 845 254 857 q 253 829 253 833 l 253 724 l 363 724 l 364 724 l 364 688 l 363 686 l 253 686 l 253 64 q 278 30 253 39 q 328 18 303 21 l 365 18 l 367 17 l 367 1 l 365 0 l 24 0 l 24 1 l 24 17 l 24 18 l 63 18 q 112 30 88 21 q 136 64 136 39 l 136 686 l 26 686 l 26 688 l 26 724 l 136 724 l 136 818 q 157 917 136 869 q 213 1000 178 964 q 297 1058 249 1036 q 399 1079 344 1079 q 424 1078 411 1079 q 451 1074 438 1076 q 518 1049 492 1064 q 551 1026 544 1033 z "},"g":{"ha":703,"x_min":17,"x_max":671,"o":"m 633 18 q 660 -58 656 -22 q 664 -100 664 -94 q 658 -142 664 -121 q 649 -171 653 -162 q 544 -275 613 -242 q 458 -303 504 -294 q 364 -312 411 -312 q 143 -272 236 -312 q 24 -160 49 -229 q 17 -111 17 -135 l 17 -100 q 27 -50 18 -81 q 64 11 36 -19 q 113 53 90 40 q 147 71 136 67 q 131 78 140 74 q 111 90 122 82 q 83 114 94 101 q 57 192 57 144 q 65 243 57 218 q 79 268 68 251 q 113 303 90 285 q 124 310 121 308 q 73 389 92 344 q 54 482 54 433 q 76 582 54 535 q 134 664 97 629 q 221 719 171 699 q 328 739 271 739 q 413 726 372 739 q 486 692 453 714 q 510 715 497 704 q 539 732 524 725 q 578 749 561 744 q 603 754 596 753 q 629 753 614 757 q 653 739 644 749 q 669 706 668 725 q 660 674 671 688 q 628 664 646 663 q 594 681 607 667 q 593 682 593 681 q 564 693 581 694 q 522 671 542 690 l 518 667 q 579 583 557 631 q 601 482 601 536 q 580 381 601 428 q 521 299 558 335 q 433 244 483 264 q 328 224 383 224 q 240 238 282 224 q 164 275 199 251 l 154 268 q 133 224 133 249 q 135 212 133 217 q 139 201 136 207 q 164 175 149 182 q 276 157 204 157 l 383 157 q 522 124 457 157 q 586 78 558 106 q 633 18 614 51 m 224 -212 q 293 -234 251 -224 q 383 -244 335 -244 q 394 -244 389 -244 q 407 -243 400 -243 q 482 -224 444 -240 q 540 -172 519 -208 q 554 -108 554 -144 q 525 -17 554 -57 q 461 33 500 15 q 396 51 429 46 q 331 56 363 56 q 303 56 317 56 q 276 54 290 56 q 239 48 257 51 q 206 35 221 44 q 177 12 190 25 q 156 -17 164 -1 q 140 -47 144 -28 q 135 -86 135 -65 q 144 -140 135 -121 q 178 -183 157 -168 q 224 -212 199 -199 m 494 482 q 481 563 494 525 q 445 628 468 600 q 392 672 422 656 q 328 689 363 689 q 263 672 293 689 q 210 628 233 656 q 174 563 188 600 q 161 482 161 525 q 174 401 161 439 q 210 335 188 364 q 263 291 233 307 q 328 275 293 275 q 392 291 363 275 q 445 335 422 307 q 481 401 468 364 q 494 482 494 439 z "},"j":{"ha":354,"x_min":4,"x_max":324,"o":"m 240 842 q 180 866 204 842 q 156 925 156 890 q 180 985 156 961 q 240 1010 204 1010 q 299 985 275 1010 q 324 925 324 961 q 299 866 324 890 q 240 842 275 842 m 308 726 l 308 724 l 308 710 l 308 708 l 299 699 l 299 -64 q 285 -144 299 -106 q 247 -215 272 -183 q 194 -267 226 -242 q 128 -301 157 -293 q 89 -311 100 -308 q 80 -312 85 -312 q 72 -312 75 -312 q 25 -292 49 -312 q 4 -243 4 -271 q 18 -210 4 -224 q 51 -196 32 -196 q 100 -217 79 -196 q 128 -229 113 -229 q 165 -211 147 -229 q 182 -172 182 -193 l 182 646 q 169 675 182 663 q 148 688 161 683 q 122 695 135 693 q 97 697 108 697 q 82 697 86 697 l 81 699 l 81 714 l 82 715 l 308 726 z "},"h":{"ha":801,"x_min":24,"x_max":758,"o":"m 758 17 l 758 1 l 757 0 l 421 0 l 419 1 l 419 17 l 421 18 l 458 18 q 492 24 475 21 q 521 38 510 28 q 532 64 532 49 l 532 100 l 532 518 q 515 585 529 564 q 489 615 500 607 q 381 624 449 646 q 254 532 310 600 l 254 101 l 254 64 q 265 39 254 50 q 294 24 276 28 q 329 18 313 21 l 367 18 l 368 17 l 368 1 l 367 0 l 25 0 l 24 1 l 24 17 l 25 18 l 63 18 q 98 24 81 21 q 126 39 115 28 q 138 64 138 50 l 138 101 l 138 961 l 138 1006 q 126 1035 138 1021 q 103 1047 117 1043 q 77 1053 90 1051 q 53 1056 64 1056 q 39 1056 43 1056 l 38 1056 l 36 1057 l 36 1074 l 38 1074 l 264 1085 l 265 1083 l 265 1068 l 265 1067 l 254 1058 l 254 606 q 327 676 286 647 q 414 715 368 704 q 499 721 458 726 q 572 693 540 715 q 638 590 618 660 q 645 546 644 565 q 646 518 646 526 l 646 100 l 646 64 q 657 38 646 49 q 685 24 668 28 q 721 18 703 21 l 757 18 l 758 17 z "},"i":{"ha":411,"x_min":42,"x_max":386,"o":"m 214 840 q 153 865 178 840 q 129 925 129 889 q 153 985 129 960 q 214 1010 178 1010 q 274 985 250 1010 q 299 925 299 960 q 274 865 299 889 q 214 840 250 840 m 386 18 l 386 3 l 385 0 l 43 0 l 42 3 l 42 18 l 43 21 l 82 21 q 131 31 107 22 q 156 65 156 40 l 156 646 q 143 675 156 663 q 122 688 135 683 q 95 695 108 693 q 71 697 82 697 q 56 697 60 697 l 54 697 l 54 714 l 56 714 l 282 724 l 282 708 l 274 700 l 274 65 q 298 31 274 40 q 347 21 322 22 l 385 21 l 386 18 z "},"k":{"ha":835,"x_min":26,"x_max":799,"o":"m 799 17 l 799 1 l 797 0 l 456 0 l 454 1 l 454 17 l 456 18 l 458 18 q 479 19 464 18 q 511 22 494 19 q 542 28 528 24 q 560 42 556 33 q 556 60 564 50 l 289 410 l 257 382 l 257 64 q 268 38 257 49 q 297 24 279 28 q 332 18 315 19 l 369 18 l 371 17 l 371 1 l 369 0 l 28 0 l 26 1 l 26 17 l 28 18 l 65 18 q 101 24 83 19 q 129 38 118 28 q 140 64 140 47 l 140 1004 q 129 1029 140 1019 q 79 1049 111 1046 q 29 1049 47 1051 l 28 1049 l 26 1050 l 26 1065 l 28 1068 l 256 1078 l 257 1076 l 257 1063 l 257 1061 l 257 458 l 260 460 l 508 685 l 503 707 l 503 722 l 504 724 l 697 714 l 700 713 l 700 697 l 697 694 l 683 694 q 667 694 676 694 q 649 690 658 693 q 579 664 607 685 l 567 651 q 542 631 553 640 q 531 619 531 621 l 364 475 l 674 60 q 746 22 693 33 q 786 18 768 18 l 797 18 l 799 17 z "},"l":{"ha":411,"x_min":31,"x_max":375,"o":"m 375 17 l 375 1 l 374 0 l 32 0 l 31 1 l 31 17 l 32 18 l 69 18 q 104 24 86 21 q 133 39 122 28 q 144 64 144 50 l 144 101 l 144 1000 q 132 1028 144 1017 q 110 1041 124 1036 q 84 1048 97 1046 q 60 1050 71 1050 q 44 1050 49 1050 l 43 1051 l 43 1067 l 44 1068 l 271 1078 l 272 1078 l 272 1061 l 271 1060 l 261 1051 l 261 101 l 261 64 q 272 39 261 49 q 301 24 283 28 q 336 18 318 21 l 374 18 l 375 17 z "},"m":{"ha":1172,"x_min":18,"x_max":1143,"o":"m 1143 17 l 1143 1 l 1142 0 l 806 0 l 804 1 l 804 17 l 806 18 l 842 18 q 877 24 860 19 q 906 38 894 28 q 915 63 915 47 l 915 536 q 899 603 913 581 q 874 633 885 625 q 815 650 850 650 q 730 627 776 650 q 643 556 683 604 l 638 547 l 638 63 q 649 38 638 49 q 677 24 660 28 q 711 18 694 19 l 749 18 l 749 17 l 749 1 l 749 0 l 413 0 l 411 1 l 411 17 l 413 18 l 449 18 q 484 24 467 19 q 513 38 501 28 q 522 63 522 47 l 522 536 q 506 603 519 581 q 481 633 492 625 q 422 650 457 650 q 371 642 397 650 q 244 549 301 618 l 244 63 q 256 38 244 49 q 284 24 267 28 q 318 18 301 19 l 356 18 l 357 17 l 357 1 l 356 0 l 19 0 l 18 1 l 18 17 l 19 18 l 56 18 q 91 24 74 19 q 119 38 108 28 q 129 63 129 47 l 129 647 q 118 675 129 664 q 95 688 108 683 q 69 695 82 693 q 45 697 56 697 q 31 697 35 697 l 29 697 l 28 699 l 28 714 l 29 717 l 256 726 l 257 725 l 257 710 l 257 708 l 244 697 l 244 622 q 317 693 276 664 q 404 733 358 722 q 434 739 419 738 q 463 740 449 740 q 563 711 521 740 q 629 610 610 678 l 629 607 q 655 648 636 628 q 699 685 674 668 q 750 715 724 703 q 799 733 776 728 q 828 739 814 738 q 856 740 842 740 q 956 711 915 740 q 1021 610 1004 678 q 1029 563 1028 583 q 1031 536 1031 543 l 1031 63 q 1042 38 1031 49 q 1070 24 1053 28 q 1104 18 1088 19 l 1142 18 l 1143 17 z "},"n":{"ha":772,"x_min":15,"x_max":747,"o":"m 747 17 l 747 1 l 746 0 l 410 0 l 408 1 l 408 17 l 410 18 l 447 18 q 497 30 472 21 q 521 63 521 39 l 521 538 q 504 604 518 582 q 479 635 490 626 q 421 651 454 651 q 369 643 396 651 q 242 550 297 621 l 242 63 q 266 30 242 39 q 315 18 290 21 l 353 18 l 354 17 l 354 1 l 353 0 l 17 0 l 15 1 l 15 17 l 17 18 l 54 18 q 103 30 79 21 q 128 63 128 39 l 128 647 q 115 675 128 664 q 93 688 107 683 q 66 695 79 693 q 42 697 53 697 q 28 697 32 697 l 26 699 l 26 714 l 28 715 l 254 726 l 256 725 l 256 710 l 256 708 l 242 697 l 242 624 q 315 694 274 665 q 403 735 356 724 q 432 740 418 739 q 460 742 446 742 q 561 713 519 742 q 603 666 588 693 q 626 613 618 639 q 635 567 633 588 q 636 538 636 546 l 636 63 q 660 30 636 39 q 708 18 683 21 l 746 18 l 747 17 z "},"o":{"ha":663,"x_min":21,"x_max":643,"o":"m 332 739 q 453 709 396 739 q 552 628 510 679 q 619 508 594 576 q 643 361 643 439 q 619 213 643 282 q 552 94 594 144 q 453 13 510 43 q 332 -17 396 -17 q 210 13 267 -17 q 112 94 154 43 q 45 213 69 144 q 21 361 21 282 q 45 508 21 439 q 112 628 69 576 q 210 709 154 679 q 332 739 267 739 m 332 53 q 406 77 371 53 q 467 143 442 101 q 508 241 493 185 q 524 361 524 297 q 508 481 524 425 q 467 578 493 536 q 406 644 442 619 q 332 668 371 668 q 257 644 292 668 q 197 578 222 619 q 156 481 171 536 q 140 361 140 425 q 156 241 140 297 q 197 143 171 185 q 257 77 222 101 q 332 53 292 53 z "},"p":{"ha":743,"x_min":10,"x_max":715,"o":"m 624 631 q 692 508 668 576 q 715 363 715 439 q 692 217 715 286 q 624 94 668 147 q 522 12 579 40 q 403 -17 465 -17 q 240 39 313 -17 l 240 -247 q 251 -272 240 -262 q 280 -287 263 -283 q 315 -293 297 -292 l 351 -293 l 354 -294 l 354 -310 l 351 -311 l 238 -311 l 125 -311 l 11 -311 l 10 -310 l 10 -294 l 11 -293 l 49 -293 q 83 -287 65 -292 q 113 -272 101 -283 q 124 -247 124 -261 l 124 647 q 111 676 124 664 q 90 689 103 685 q 63 695 76 693 q 39 698 50 697 q 24 699 28 699 l 22 699 l 22 715 l 24 717 l 249 726 l 251 725 l 251 710 l 250 708 l 240 700 l 240 685 q 403 742 314 742 q 522 713 465 742 q 624 631 579 683 m 567 207 q 586 282 579 243 q 593 363 593 321 q 567 517 593 444 q 499 626 542 586 q 450 658 475 649 q 397 667 425 667 q 316 648 357 667 q 240 601 275 629 l 240 122 q 312 76 271 94 q 396 57 353 57 q 449 66 424 57 q 499 97 475 75 q 567 207 542 138 z "},"q":{"ha":747,"x_min":18,"x_max":725,"o":"m 725 -294 l 725 -310 l 724 -311 l 610 -311 l 496 -311 l 382 -311 l 381 -310 l 381 -294 l 382 -293 l 419 -293 q 454 -287 436 -292 q 483 -272 472 -283 q 494 -247 494 -261 l 494 39 q 417 -3 458 11 q 332 -17 375 -17 q 110 94 201 -17 q 42 217 65 147 q 18 363 18 286 q 39 494 18 426 q 100 616 60 561 q 199 706 140 671 q 332 742 257 742 q 494 685 421 742 l 494 700 l 483 708 l 483 710 l 483 725 l 485 726 l 711 717 l 713 715 l 713 699 l 711 699 q 696 698 707 699 q 672 695 685 697 q 645 689 658 693 q 624 676 632 685 q 611 647 611 664 l 611 -247 q 622 -272 611 -261 q 651 -287 633 -283 q 686 -293 668 -292 l 724 -293 l 725 -294 m 494 601 q 423 648 464 629 q 339 667 382 667 q 285 658 311 667 q 236 626 260 649 q 167 517 192 586 q 140 363 140 444 q 147 282 140 321 q 167 207 154 243 q 236 97 192 138 q 283 66 258 75 q 336 57 308 57 q 418 76 376 57 q 494 122 460 94 l 494 601 z "},"r":{"ha":601,"x_min":22,"x_max":574,"o":"m 535 731 q 563 708 551 724 q 574 669 574 692 q 558 626 574 644 q 521 608 542 608 q 478 633 494 608 q 438 657 464 657 q 433 656 435 657 q 428 656 431 656 q 342 623 390 646 q 250 550 293 600 l 250 64 q 261 39 250 47 q 289 24 272 28 q 324 19 306 19 l 360 19 l 361 17 l 361 1 l 360 0 l 25 0 l 22 1 l 22 17 l 25 19 l 61 19 q 95 24 78 19 q 124 39 113 28 q 135 64 135 47 l 135 654 q 124 678 135 671 q 102 690 115 686 q 74 697 89 694 q 47 698 60 699 q 26 697 35 697 l 25 697 l 22 699 l 22 714 l 24 715 l 249 726 l 250 724 l 250 624 q 389 729 304 699 q 467 743 426 743 q 535 731 503 743 z "},"s":{"ha":568,"x_min":22,"x_max":549,"o":"m 418 390 q 515 313 481 365 q 549 200 549 260 q 532 120 549 160 q 481 49 515 81 q 367 -10 433 6 q 336 -15 351 -14 q 306 -17 321 -17 q 228 -8 267 -17 q 162 13 196 -1 q 83 57 128 26 l 40 1 l 39 0 l 22 0 l 22 1 l 22 232 l 22 233 l 42 233 l 43 232 q 62 172 43 201 q 109 117 81 142 q 172 74 138 92 q 235 51 206 57 q 272 46 253 49 q 310 43 290 43 q 357 49 333 43 q 401 72 381 56 q 426 97 417 85 q 438 115 435 108 q 444 133 439 119 q 449 168 449 147 q 443 204 449 188 q 429 234 438 221 q 411 256 421 247 q 394 269 401 264 q 382 275 386 274 q 276 322 331 306 q 168 363 221 339 q 103 404 136 379 q 53 465 69 429 q 39 531 39 494 q 65 626 39 579 q 136 703 92 674 q 203 733 168 724 q 278 743 239 743 q 396 724 338 743 q 414 717 404 721 q 432 708 424 713 l 485 726 l 486 726 l 501 726 l 503 725 l 503 536 l 501 535 l 483 535 l 481 536 q 480 545 481 536 q 474 567 479 554 q 456 597 468 581 q 424 631 444 614 q 359 667 396 653 q 285 682 322 682 q 220 667 250 682 q 171 614 190 651 q 160 561 160 589 q 165 530 160 546 q 181 501 169 514 q 222 471 193 486 q 285 442 250 456 q 356 415 319 428 q 418 390 392 401 z "},"t":{"ha":549,"x_min":7,"x_max":529,"o":"m 529 169 q 447 42 506 96 q 306 -17 389 -11 l 299 -17 q 193 14 236 -17 q 128 106 146 47 q 126 116 126 110 q 124 142 125 122 q 122 197 122 161 q 120 297 121 233 q 119 455 119 360 q 118 686 118 550 l 7 686 l 7 688 l 7 724 l 7 725 l 118 725 l 118 849 l 118 850 l 232 886 l 233 885 l 233 725 l 431 725 l 433 724 l 433 688 l 431 686 l 233 686 q 233 545 233 619 q 233 402 233 471 q 234 277 233 333 q 235 193 235 221 q 257 114 235 149 q 306 72 275 85 q 339 65 324 65 q 390 78 363 65 q 441 115 418 90 q 476 171 464 139 l 478 171 l 526 171 l 529 169 z "},"u":{"ha":775,"x_min":17,"x_max":740,"o":"m 740 19 l 740 3 l 739 1 l 513 1 l 511 3 l 511 103 q 438 32 479 61 q 351 -8 397 3 q 294 -17 322 -17 q 193 14 236 -17 q 128 115 147 47 q 119 160 121 142 q 118 186 118 179 l 118 647 q 107 675 118 664 q 84 688 97 683 q 58 695 71 693 q 34 697 44 697 q 19 697 24 697 l 18 697 l 17 699 l 17 714 l 18 717 l 244 726 l 246 725 l 246 710 l 246 708 l 233 697 l 233 189 q 250 122 236 144 q 275 92 264 100 q 333 75 297 75 q 385 83 357 75 q 451 119 419 94 q 511 176 483 143 l 511 647 q 500 675 511 664 q 477 688 490 683 q 451 695 464 693 q 426 697 438 697 q 411 697 415 697 l 410 699 l 410 714 l 411 717 l 638 726 l 639 725 l 639 710 l 639 708 l 626 697 l 626 65 q 638 40 626 51 q 666 26 649 29 q 701 19 683 22 l 739 19 l 740 19 z "},"v":{"ha":719,"x_min":18,"x_max":694,"o":"m 694 711 l 694 696 l 694 694 l 692 694 q 667 695 682 696 q 636 690 651 694 q 608 677 621 686 q 592 651 596 668 l 428 1 l 426 0 l 288 0 l 285 1 l 121 651 q 104 677 117 668 q 76 690 92 686 q 47 695 61 694 q 22 694 32 696 l 19 694 l 18 696 l 18 711 l 19 713 l 246 724 l 247 722 l 247 707 l 246 706 l 229 692 l 374 114 l 517 686 l 499 706 l 499 707 l 499 722 l 500 724 l 694 713 l 694 711 z "},"w":{"ha":1136,"x_min":17,"x_max":1114,"o":"m 1114 713 l 1114 697 l 1111 696 l 1110 696 q 1085 696 1100 696 q 1054 692 1069 696 q 1026 678 1039 688 q 1010 651 1014 668 l 846 1 l 844 0 l 818 0 l 765 0 l 704 0 l 703 1 l 565 551 l 426 1 l 425 0 l 399 0 l 346 0 l 286 0 l 283 1 l 119 651 q 103 678 115 668 q 75 692 90 688 q 44 696 60 696 q 19 696 29 696 l 18 696 l 17 697 l 17 713 l 18 714 l 244 724 l 246 722 l 246 707 l 244 706 l 228 692 l 372 114 l 522 722 l 524 724 l 607 724 l 638 724 l 639 722 l 792 114 l 933 686 l 917 706 l 917 707 l 917 722 l 918 724 l 1111 714 l 1114 713 z "},"x":{"ha":735,"x_min":22,"x_max":708,"o":"m 708 17 l 708 1 l 706 0 l 481 0 l 479 1 l 479 17 l 479 18 l 499 33 l 344 292 l 186 35 l 206 18 l 206 17 l 206 1 l 204 0 l 28 0 l 26 1 l 26 17 l 28 19 q 61 21 46 18 q 89 29 75 24 q 111 49 103 35 l 114 53 q 124 69 118 60 q 147 108 129 78 q 201 198 165 139 q 303 364 238 257 l 131 654 q 101 683 119 672 q 67 700 83 694 q 37 707 50 706 q 24 708 24 708 l 22 710 l 22 725 l 24 726 l 249 726 l 250 725 l 250 710 l 250 708 l 235 694 l 367 469 l 506 694 l 489 708 l 489 710 l 489 725 l 490 726 l 667 726 l 668 725 l 668 710 l 667 708 q 633 706 649 708 q 606 697 619 703 q 583 678 592 690 l 576 667 q 569 653 574 661 q 549 620 565 646 q 501 542 533 594 q 410 396 468 490 l 599 72 q 628 44 610 54 q 663 28 646 33 q 692 21 679 22 q 706 19 706 19 l 708 17 z "},"y":{"ha":718,"x_min":18,"x_max":696,"o":"m 696 713 l 696 696 l 694 694 l 692 694 q 667 695 682 696 q 638 690 653 694 q 610 677 622 686 q 593 651 597 668 l 396 -125 q 364 -200 386 -165 q 310 -260 342 -235 q 279 -279 294 -271 q 247 -294 264 -287 q 194 -309 219 -306 q 151 -312 169 -312 q 125 -311 129 -312 q 76 -278 94 -308 q 67 -243 67 -262 q 73 -217 67 -229 q 90 -199 79 -206 q 114 -192 101 -192 q 143 -201 129 -192 q 167 -225 157 -210 q 197 -244 178 -244 q 231 -231 214 -244 q 260 -203 249 -218 q 283 -151 276 -182 q 291 -110 289 -131 q 293 -69 293 -89 q 286 1 293 -24 l 121 651 q 104 677 117 668 q 76 690 92 686 q 46 695 61 694 q 21 694 31 696 l 19 694 l 18 696 l 18 713 l 19 713 l 246 724 l 247 722 l 247 707 l 247 706 l 229 692 l 374 113 l 517 686 l 500 706 l 500 707 l 500 722 l 500 724 l 694 713 l 696 713 z "},"z":{"ha":568,"x_min":19,"x_max":536,"o":"m 532 174 l 533 172 l 533 71 l 533 1 l 533 -15 l 532 -17 l 517 -17 l 515 -17 l 469 0 l 21 0 l 19 1 l 375 650 l 114 650 q 86 638 99 650 q 70 612 75 626 q 63 583 65 597 q 60 551 60 568 l 58 549 l 39 549 l 38 551 l 38 651 l 38 722 l 38 739 l 39 740 l 56 740 l 101 724 l 535 724 l 536 721 l 181 74 l 458 74 q 485 86 474 74 q 500 111 494 97 q 508 139 506 125 q 513 172 513 154 l 514 174 l 532 174 z "},"à":{"ha":646,"x_min":25,"x_max":617,"o":"m 617 17 l 617 0 l 615 0 l 392 0 l 390 0 l 390 72 q 322 0 374 24 q 239 -17 285 -17 q 222 -16 231 -17 q 206 -14 214 -15 q 138 5 169 -8 q 82 40 106 18 q 25 164 25 90 q 85 317 25 261 q 222 375 135 363 q 292 398 258 381 q 353 443 326 415 q 381 488 371 461 q 390 544 390 515 q 378 603 390 575 q 342 647 367 631 q 278 667 315 667 q 213 654 247 667 q 175 622 185 644 q 159 575 165 599 q 143 533 153 551 q 107 515 133 515 q 71 533 86 515 q 56 578 56 551 q 77 630 56 604 q 128 676 99 656 q 192 713 158 697 q 251 733 226 728 q 281 738 267 736 q 311 740 296 740 q 422 710 374 740 q 468 664 451 690 q 493 612 485 638 q 503 565 501 586 q 504 536 504 544 l 504 63 q 528 28 504 38 q 578 18 553 19 l 615 18 l 617 17 m 390 399 q 384 388 388 393 q 376 379 381 383 q 351 360 368 371 q 334 349 342 353 q 322 343 326 344 q 300 331 310 336 q 279 321 290 325 q 246 305 264 313 q 208 286 228 297 q 168 249 182 267 q 147 219 154 231 q 140 203 144 214 q 133 179 136 193 q 131 167 132 172 q 131 154 131 161 q 154 89 131 117 q 198 60 171 69 q 254 50 225 50 q 309 58 282 50 q 356 83 336 67 q 380 113 372 99 q 390 139 388 128 l 390 399 m 303 938 l 438 814 l 438 811 l 371 790 l 369 792 l 207 907 l 207 910 l 301 938 l 303 938 l 303 938 z "},"á":{"ha":646,"x_min":25,"x_max":617,"o":"m 617 17 l 617 0 l 615 0 l 392 0 l 390 0 l 390 72 q 322 0 374 24 q 239 -17 285 -17 q 222 -16 231 -17 q 206 -14 214 -15 q 138 5 169 -8 q 82 40 106 18 q 25 164 25 90 q 85 317 25 261 q 222 375 135 363 q 292 398 258 381 q 353 443 326 415 q 381 488 371 461 q 390 544 390 515 q 378 603 390 575 q 342 647 367 631 q 278 667 315 667 q 213 654 247 667 q 175 622 185 644 q 159 575 165 599 q 143 533 153 551 q 107 515 133 515 q 71 533 86 515 q 56 578 56 551 q 77 630 56 604 q 128 676 99 656 q 192 713 158 697 q 251 733 226 728 q 281 738 267 736 q 311 740 296 740 q 422 710 374 740 q 468 664 451 690 q 493 612 485 638 q 503 565 501 586 q 504 536 504 544 l 504 63 q 528 28 504 38 q 578 18 553 19 l 615 18 l 617 17 m 390 399 q 384 388 388 393 q 376 379 381 383 q 351 360 368 371 q 334 349 342 353 q 322 343 326 344 q 300 331 310 336 q 279 321 290 325 q 246 305 264 313 q 208 286 228 297 q 168 249 182 267 q 147 219 154 231 q 140 203 144 214 q 133 179 136 193 q 131 167 132 172 q 131 154 131 161 q 154 89 131 117 q 198 60 171 69 q 254 50 225 50 q 309 58 282 50 q 356 83 336 67 q 380 113 372 99 q 390 139 388 128 l 390 399 m 438 910 l 439 907 l 276 792 l 275 790 l 208 811 l 207 814 l 343 938 l 344 938 l 438 910 l 438 910 z "},"è":{"ha":654,"x_min":18,"x_max":615,"o":"m 142 382 l 142 363 q 167 208 142 279 q 236 99 192 139 q 285 67 260 76 q 336 57 310 57 q 397 68 367 57 q 455 98 426 79 q 507 141 483 117 q 549 192 531 165 l 550 192 l 608 192 l 610 190 q 496 42 569 96 q 331 -17 421 -17 q 211 13 268 -17 q 110 96 154 42 q 42 218 65 149 q 18 363 18 288 q 42 508 18 439 q 110 631 65 578 q 213 715 158 689 q 322 742 267 742 q 431 715 379 742 q 524 642 483 689 q 590 530 565 596 q 615 385 614 464 l 614 382 l 142 382 m 331 668 q 270 652 299 668 q 217 608 242 636 q 176 541 193 581 q 150 456 158 501 l 497 456 q 479 526 490 493 q 451 588 468 560 q 331 668 403 668 m 307 938 l 442 814 l 442 811 l 375 790 l 374 792 l 211 907 l 211 910 l 306 938 l 307 938 l 307 938 z "},"é":{"ha":654,"x_min":18,"x_max":615,"o":"m 142 382 l 142 363 q 167 208 142 279 q 236 99 192 139 q 285 67 260 76 q 336 57 310 57 q 397 68 367 57 q 455 98 426 79 q 507 141 483 117 q 549 192 531 165 l 550 192 l 608 192 l 610 190 q 496 42 569 96 q 331 -17 421 -17 q 211 13 268 -17 q 110 96 154 42 q 42 218 65 149 q 18 363 18 288 q 42 508 18 439 q 110 631 65 578 q 213 715 158 689 q 322 742 267 742 q 431 715 379 742 q 524 642 483 689 q 590 530 565 596 q 615 385 614 464 l 614 382 l 142 382 m 331 668 q 270 652 299 668 q 217 608 242 636 q 176 541 193 581 q 150 456 158 501 l 497 456 q 479 526 490 493 q 451 588 468 560 q 331 668 403 668 m 442 910 l 443 907 l 281 792 l 279 790 l 213 811 l 211 814 l 347 938 l 349 938 l 442 910 l 442 910 z "},"í":{"ha":392,"x_min":22,"x_max":367,"o":"m 367 19 l 367 4 l 365 1 l 25 1 l 22 4 l 22 19 l 25 22 l 63 22 q 112 33 88 24 q 136 67 136 42 l 136 647 q 125 676 136 665 q 102 690 115 685 q 76 697 89 694 q 51 699 63 699 q 36 699 40 699 l 35 699 l 35 715 l 36 715 l 263 726 l 263 710 l 254 701 l 254 67 q 278 33 254 42 q 328 22 303 24 l 365 22 l 367 19 m 303 907 l 140 792 l 139 790 l 72 811 l 71 814 l 207 938 l 208 938 l 301 910 l 303 907 z "},"ì":{"ha":390,"x_min":31,"x_max":375,"o":"m 375 19 l 375 4 l 374 1 l 33 1 l 31 4 l 31 19 l 33 22 l 71 22 q 120 33 96 24 q 144 67 144 42 l 144 647 q 133 676 144 665 q 110 690 124 685 q 84 697 97 694 q 60 699 71 699 q 44 699 49 699 l 43 699 l 43 715 l 44 715 l 271 726 l 271 710 l 263 701 l 263 67 q 287 33 263 42 q 336 22 311 24 l 374 22 l 375 19 m 261 814 l 261 811 l 194 790 l 193 792 l 31 907 l 31 910 l 125 938 l 126 938 l 261 814 z "},"ó":{"ha":663,"x_min":21,"x_max":643,"o":"m 332 739 q 453 709 396 739 q 552 628 510 679 q 619 508 594 576 q 643 361 643 439 q 619 213 643 282 q 552 94 594 144 q 453 13 510 43 q 332 -17 396 -17 q 210 13 267 -17 q 112 94 154 43 q 45 213 69 144 q 21 361 21 282 q 45 508 21 439 q 112 628 69 576 q 210 709 154 679 q 332 739 267 739 m 332 53 q 406 77 371 53 q 467 143 442 101 q 508 241 493 185 q 524 361 524 297 q 508 481 524 425 q 467 578 493 536 q 406 644 442 619 q 332 668 371 668 q 257 644 292 668 q 197 578 222 619 q 156 481 171 536 q 140 361 140 425 q 156 241 140 297 q 197 143 171 185 q 257 77 222 101 q 332 53 292 53 m 446 910 l 447 907 l 285 792 l 283 790 l 217 811 l 215 814 l 351 938 l 353 938 l 446 910 l 446 910 z "},"ò":{"ha":663,"x_min":21,"x_max":643,"o":"m 332 739 q 453 709 396 739 q 552 628 510 679 q 619 508 594 576 q 643 361 643 439 q 619 213 643 282 q 552 94 594 144 q 453 13 510 43 q 332 -17 396 -17 q 210 13 267 -17 q 112 94 154 43 q 45 213 69 144 q 21 361 21 282 q 45 508 21 439 q 112 628 69 576 q 210 709 154 679 q 332 739 267 739 m 332 53 q 406 77 371 53 q 467 143 442 101 q 508 241 493 185 q 524 361 524 297 q 508 481 524 425 q 467 578 493 536 q 406 644 442 619 q 332 668 371 668 q 257 644 292 668 q 197 578 222 619 q 156 481 171 536 q 140 361 140 425 q 156 241 140 297 q 197 143 171 185 q 257 77 222 101 q 332 53 292 53 m 311 938 l 446 814 l 446 811 l 379 790 l 378 792 l 215 907 l 215 910 l 310 938 l 311 938 l 311 938 z "},"ú":{"ha":775,"x_min":17,"x_max":740,"o":"m 740 19 l 740 3 l 739 1 l 513 1 l 511 3 l 511 103 q 438 32 479 61 q 351 -8 397 3 q 294 -17 322 -17 q 193 14 236 -17 q 128 115 147 47 q 119 160 121 142 q 118 186 118 179 l 118 647 q 107 675 118 664 q 84 688 97 683 q 58 695 71 693 q 34 697 44 697 q 19 697 24 697 l 18 697 l 17 699 l 17 714 l 18 717 l 244 726 l 246 725 l 246 710 l 246 708 l 233 697 l 233 189 q 250 122 236 144 q 275 92 264 100 q 333 75 297 75 q 385 83 357 75 q 451 119 419 94 q 511 176 483 143 l 511 647 q 500 675 511 664 q 477 688 490 683 q 451 695 464 693 q 426 697 438 697 q 411 697 415 697 l 410 699 l 410 714 l 411 717 l 638 726 l 639 725 l 639 710 l 639 708 l 626 697 l 626 65 q 638 40 626 51 q 666 26 649 29 q 701 19 683 22 l 739 19 l 740 19 m 501 910 l 503 907 l 340 792 l 339 790 l 272 811 l 271 814 l 407 938 l 408 938 l 501 910 l 501 910 z "},"'":{"ha":147,"x_min":24,"x_max":121,"o":"m 119 1026 l 121 1025 l 79 850 l 78 849 l 24 849 l 24 850 l 36 1025 l 38 1026 l 119 1026 l 119 1026 z "},"S":{"ha":675,"x_min":19,"x_max":651,"o":"m 553 506 q 626 408 601 465 q 651 278 651 350 q 625 160 651 214 q 553 67 599 107 q 451 6 508 28 q 331 -17 393 -17 q 133 38 226 -17 q 58 93 92 61 q 42 50 46 69 q 36 18 38 31 l 36 0 l 19 1 l 19 271 l 36 269 l 36 260 q 43 213 38 244 q 72 149 49 182 q 94 121 82 133 q 111 110 106 113 q 265 46 182 58 q 325 42 288 42 q 393 47 357 42 q 460 68 429 53 q 526 137 500 89 q 551 235 551 185 q 522 328 551 288 q 447 397 493 369 q 302 485 364 449 q 196 549 240 521 q 125 599 153 575 q 81 648 97 624 q 59 700 65 672 q 53 761 53 728 q 75 860 53 813 q 135 944 97 908 q 223 1001 174 979 q 326 1022 272 1022 q 444 997 389 1022 q 542 924 499 972 q 562 972 554 944 q 571 1004 569 999 l 586 1003 l 586 781 l 569 782 l 569 801 q 563 824 568 811 q 551 847 558 836 q 536 874 544 861 q 458 940 506 915 q 354 964 411 964 q 288 953 322 964 q 226 920 254 942 q 179 869 197 899 q 161 801 161 839 q 169 761 161 778 q 190 731 176 744 q 222 706 204 717 q 258 685 239 696 q 281 672 263 682 q 328 645 300 661 q 388 610 356 629 q 452 572 421 592 q 510 535 483 553 q 553 506 538 518 z "},"ù":{"ha":775,"x_min":17,"x_max":740,"o":"m 740 19 l 740 3 l 739 1 l 513 1 l 511 3 l 511 103 q 438 32 479 61 q 351 -8 397 3 q 294 -17 322 -17 q 193 14 236 -17 q 128 115 147 47 q 119 160 121 142 q 118 186 118 179 l 118 647 q 107 675 118 664 q 84 688 97 683 q 58 695 71 693 q 34 697 44 697 q 19 697 24 697 l 18 697 l 17 699 l 17 714 l 18 717 l 244 726 l 246 725 l 246 710 l 246 708 l 233 697 l 233 189 q 250 122 236 144 q 275 92 264 100 q 333 75 297 75 q 385 83 357 75 q 451 119 419 94 q 511 176 483 143 l 511 647 q 500 675 511 664 q 477 688 490 683 q 451 695 464 693 q 426 697 438 697 q 411 697 415 697 l 410 699 l 410 714 l 411 717 l 638 726 l 639 725 l 639 710 l 639 708 l 626 697 l 626 65 q 638 40 626 51 q 666 26 649 29 q 701 19 683 22 l 739 19 l 740 19 m 368 938 l 503 814 l 503 811 l 436 790 l 435 792 l 272 907 l 272 910 l 367 938 l 368 938 l 368 938 z "}}}
